<svg id="Layer_1" enable-background="new 0 0 512 512" height="512" viewBox="0 0 512 512" width="512" xmlns="http://www.w3.org/2000/svg"><g><path d="m248.869 4.652h-50.49c-78.063 51.118-64.694 507.348 24.277 507.348 94.251 0 237.344-113.246 237.344-256 0-125.833-118.489-228.721-211.131-251.348z" fill="#795548"/><path d="m248.869 4.652h-30.93c92.645 22.613 211.152 125.503 211.152 251.348 0 132.285-122.87 239.215-215.891 254.189 3.052 1.179 6.201 1.811 9.456 1.811 94.251 0 237.344-113.246 237.344-256 0-125.834-118.489-228.721-211.131-251.348z" fill="#6d4c41"/><ellipse cx="222.656" cy="256" fill="#b1e75a" rx="170.656" ry="256"/><path d="m222.656 0c-5.211 0-10.363.37-15.455 1.056 87.007 11.719 155.202 121.375 155.202 254.944 0 133.568-68.195 243.225-155.201 254.944 5.092.686 10.244 1.056 15.455 1.056 94.251 0 170.656-114.615 170.656-256-.001-141.385-76.406-256-170.657-256z" fill="#9ed643"/><ellipse cx="213.413" cy="253.298" fill="#8dc433" rx="35.516" ry="53.474"/><path d="m321.284 245.798h-65.163c-.496-5.974-1.578-11.658-3.165-16.936l58.797-51.109c3.126-2.718 3.458-7.455.74-10.581s-7.455-3.458-10.581-.74l-55.147 47.937c-2.009-3.475-4.289-6.619-6.797-9.372l34.384-89.666c1.483-3.868-.45-8.205-4.317-9.688-3.871-1.483-8.206.45-9.688 4.317l-32.824 85.598c-2.128-1.015-4.335-1.804-6.609-2.349v-102.323c0-4.142-3.358-7.5-7.5-7.5s-7.5 3.358-7.5 7.5v102.323c-2.273.544-4.481 1.334-6.609 2.349l-32.825-85.598c-1.483-3.868-5.821-5.8-9.688-4.317s-5.8 5.821-4.317 9.688l34.384 89.666c-2.509 2.753-4.788 5.897-6.797 9.372l-55.147-47.937c-3.127-2.719-7.863-2.386-10.581.74-2.717 3.126-2.386 7.863.74 10.581l58.797 51.109c-1.587 5.278-2.67 10.962-3.165 16.936h-65.163c-4.142 0-7.5 3.358-7.5 7.5s3.358 7.5 7.5 7.5h65.163c.496 5.974 1.578 11.658 3.165 16.936l-58.797 51.109c-3.126 2.718-3.458 7.455-.74 10.581 1.483 1.706 3.568 2.58 5.664 2.58 1.744 0 3.497-.605 4.917-1.84l55.147-47.937c2.009 3.475 4.288 6.619 6.797 9.372l-34.384 89.666c-1.483 3.868.45 8.205 4.317 9.688.884.338 1.791.499 2.684.499 3.016 0 5.86-1.833 7.004-4.816l32.824-85.598c2.128 1.015 4.335 1.804 6.609 2.349v102.323c0 4.142 3.358 7.5 7.5 7.5s7.5-3.358 7.5-7.5v-102.323c2.273-.544 4.481-1.334 6.609-2.349l32.824 85.598c1.145 2.984 3.988 4.816 7.004 4.816.893 0 1.801-.161 2.684-.499 3.867-1.483 5.8-5.821 4.317-9.688l-34.384-89.666c2.509-2.753 4.788-5.897 6.797-9.372l55.147 47.937c1.42 1.235 3.172 1.84 4.917 1.84 2.096 0 4.181-.874 5.664-2.58 2.717-3.126 2.386-7.863-.74-10.581l-58.797-51.109c1.587-5.278 2.67-10.962 3.165-16.936h65.163c4.142 0 7.5-3.358 7.5-7.5s-3.357-7.5-7.499-7.5zm-107.871 53.474c-15.187 0-28.017-21.054-28.017-45.974s12.83-45.974 28.017-45.974 28.017 21.053 28.017 45.974-12.83 45.974-28.017 45.974z" fill="#50a645"/></g></svg>